<svg width="24" height="24" viewBox="0 0 24 24" fill="none" xmlns="http://www.w3.org/2000/svg">
    <path d="M4.125 6.28571H19.875C20.1734 6.28571 20.4595 6.16531 20.6705 5.95098C20.8815 5.73665 21 5.44596 21 5.14286C21 4.83975 20.8815 4.54906 20.6705 4.33474C20.4595 4.12041 20.1734 4 19.875 4H4.125C3.82663 4 3.54048 4.12041 3.3295 4.33474C3.11853 4.54906 3 4.83975 3 5.14286C3 5.44596 3.11853 5.73665 3.3295 5.95098C3.54048 6.16531 3.82663 6.28571 4.125 6.28571ZM19.875 17.7143H4.125C3.82663 17.7143 3.54048 17.8347 3.3295 18.049C3.11853 18.2633 3 18.554 3 18.8571C3 19.1602 3.11853 19.4509 3.3295 19.6653C3.54048 19.8796 3.82663 20 4.125 20H19.875C20.1734 20 20.4595 19.8796 20.6705 19.6653C20.8815 19.4509 21 19.1602 21 18.8571C21 18.554 20.8815 18.2633 20.6705 18.049C20.4595 17.8347 20.1734 17.7143 19.875 17.7143ZM13.125 10.8571H4.125C3.82663 10.8571 3.54048 10.9776 3.3295 11.1919C3.11853 11.4062 3 11.6969 3 12C3 12.3031 3.11853 12.5938 3.3295 12.8081C3.54048 13.0224 3.82663 13.1429 4.125 13.1429H13.125C13.4234 13.1429 13.7095 13.0224 13.9205 12.8081C14.1315 12.5938 14.25 12.3031 14.25 12C14.25 11.6969 14.1315 11.4062 13.9205 11.1919C13.7095 10.9776 13.4234 10.8571 13.125 10.8571Z" fill="#00BCA5"/>
</svg>
