<svg width="16" height="16" viewBox="0 0 16 16" fill="none" xmlns="http://www.w3.org/2000/svg">
    <path d="M5.01478 7.25C4.86665 7.25 4.72185 7.29399 4.59869 7.3764C4.47552 7.45881 4.37953 7.57594 4.32284 7.71299C4.26616 7.85003 4.25132 8.00083 4.28022 8.14632C4.30912 8.2918 4.38045 8.42544 4.48519 8.53033C4.58993 8.63522 4.72338 8.70665 4.86866 8.73559C5.01395 8.76453 5.16453 8.74968 5.30139 8.69291C5.43824 8.63614 5.55521 8.54002 5.6375 8.41668C5.7198 8.29334 5.76372 8.14834 5.76372 8C5.76372 7.80109 5.68481 7.61032 5.54436 7.46967C5.40391 7.32902 5.21341 7.25 5.01478 7.25ZM8.01055 7.25C7.86243 7.25 7.71763 7.29399 7.59446 7.3764C7.4713 7.45881 7.37531 7.57594 7.31862 7.71299C7.26193 7.85003 7.2471 8.00083 7.276 8.14632C7.3049 8.2918 7.37623 8.42544 7.48097 8.53033C7.58571 8.63522 7.71916 8.70665 7.86444 8.73559C8.00972 8.76453 8.16031 8.74968 8.29716 8.69291C8.43402 8.63614 8.55098 8.54002 8.63328 8.41668C8.71557 8.29334 8.7595 8.14834 8.7595 8C8.7595 7.80109 8.68059 7.61032 8.54014 7.46967C8.39968 7.32902 8.20919 7.25 8.01055 7.25ZM11.0063 7.25C10.8582 7.25 10.7134 7.29399 10.5902 7.3764C10.4671 7.45881 10.3711 7.57594 10.3144 7.71299C10.2577 7.85003 10.2429 8.00083 10.2718 8.14632C10.3007 8.2918 10.372 8.42544 10.4767 8.53033C10.5815 8.63522 10.7149 8.70665 10.8602 8.73559C11.0055 8.76453 11.1561 8.74968 11.2929 8.69291C11.4298 8.63614 11.5468 8.54002 11.6291 8.41668C11.7114 8.29334 11.7553 8.14834 11.7553 8C11.7553 7.80109 11.6764 7.61032 11.5359 7.46967C11.3955 7.32902 11.205 7.25 11.0063 7.25ZM8.01055 0.5C7.02703 0.5 6.05313 0.693993 5.14447 1.0709C4.23581 1.44781 3.41018 2.00026 2.71472 2.6967C1.31017 4.10322 0.52111 6.01088 0.52111 8C0.514563 9.73185 1.11337 11.4114 2.21372 12.7475L0.715836 14.2475C0.611914 14.353 0.541516 14.4869 0.513525 14.6324C0.485534 14.7779 0.501203 14.9284 0.558557 15.065C0.620763 15.1999 0.721606 15.3133 0.848284 15.3908C0.974962 15.4682 1.12176 15.5063 1.27005 15.5H8.01055C9.99688 15.5 11.9018 14.7098 13.3064 13.3033C14.7109 11.8968 15.5 9.98912 15.5 8C15.5 6.01088 14.7109 4.10322 13.3064 2.6967C11.9018 1.29018 9.99688 0.5 8.01055 0.5ZM8.01055 14H3.07501L3.77153 13.3025C3.8423 13.233 3.89859 13.1502 3.93716 13.0588C3.97573 12.9674 3.9958 12.8692 3.99621 12.77C3.9934 12.5722 3.91264 12.3835 3.77153 12.245C2.79085 11.264 2.18015 9.9729 2.04348 8.59159C1.90681 7.21029 2.25263 5.82425 3.02201 4.66964C3.79138 3.51503 4.93673 2.66327 6.2629 2.25948C7.58908 1.85569 9.01403 1.92485 10.295 2.45519C11.576 2.98552 12.6337 3.94421 13.2879 5.16792C13.9422 6.39163 14.1526 7.80466 13.8831 9.16625C13.6137 10.5279 12.8812 11.7538 11.8104 12.6352C10.7395 13.5166 9.39667 13.9989 8.01055 14Z" fill="#00BCA5"/>
</svg>
