<svg width="181" height="24" viewBox="0 0 181 24" fill="none" xmlns="http://www.w3.org/2000/svg">
    <g clip-path="url(#clip0_1_5126)">
        <path d="M0 18.7897V0.978821H5.8235C7.75587 0.978821 9.21032 1.37882 10.1845 2.17767C11.1587 2.97653 11.6458 4.15934 11.6458 5.7261C11.6458 6.55819 11.4097 7.29286 10.9364 7.93355C10.463 8.57424 9.81891 9.06936 9.00287 9.42008C9.96447 9.68942 10.7255 10.2017 11.2848 10.9559C11.843 11.7101 12.1226 12.6086 12.1226 13.6539C12.1226 15.2527 11.6046 16.5078 10.5696 17.4212C9.53353 18.3347 8.06991 18.7909 6.17765 18.7909H0V18.7897ZM2.34842 8.57424H5.8957C6.92264 8.57424 7.74441 8.31636 8.35989 7.80174C8.97536 7.28713 9.28367 6.58799 9.28367 5.70547C9.28367 4.72553 8.99714 4.01149 8.42751 3.56679C7.85559 3.12094 6.98797 2.89859 5.82235 2.89859H2.34842V8.57424ZM2.34842 10.4585V16.8688H6.22579C7.3192 16.8688 8.18109 16.5857 8.81261 16.0195C9.44413 15.4522 9.76046 14.6717 9.76046 13.6768C9.76046 11.5313 8.5937 10.4585 6.26247 10.4585H2.34842Z" fill="white"/>
        <path d="M20.7347 19.0338C18.941 19.0338 17.4808 18.4436 16.3553 17.2653C15.2298 16.0883 14.6671 14.5123 14.6671 12.5376V12.1227C14.6671 10.8092 14.9181 9.63669 15.4189 8.60517C15.9209 7.5748 16.6212 6.76678 17.5232 6.1834C18.4241 5.60116 19.4006 5.3089 20.4527 5.3089C22.1731 5.3089 23.5106 5.87509 24.4642 7.00861C25.4189 8.14214 25.8957 9.76506 25.8957 11.8774V12.8195H16.9295C16.9616 14.1238 17.3433 15.1782 18.0734 15.9817C18.8034 16.784 19.7307 17.1863 20.8562 17.1863C21.655 17.1863 22.3324 17.0235 22.8871 16.6969C23.4418 16.3714 23.9267 15.9381 24.3427 15.4006L25.7249 16.4757C24.6155 18.18 22.9524 19.0338 20.7347 19.0338ZM20.4527 7.16678C19.5393 7.16678 18.7725 7.49916 18.1536 8.16391C17.5335 8.82867 17.1507 9.76047 17.004 10.9582H23.6344V10.7874C23.5691 9.63784 23.2596 8.74729 22.7049 8.11463C22.1501 7.48311 21.3994 7.16678 20.4539 7.16678H20.4527Z" fill="white"/>
        <path d="M31.5851 2.34845V5.55418H34.0561V7.30203H31.5851V15.5209C31.5851 16.0516 31.6951 16.4505 31.9152 16.7152C32.1352 16.98 32.51 17.1141 33.0407 17.1141C33.302 17.1141 33.6607 17.0648 34.1169 16.9674V18.7909C33.5209 18.9536 32.9433 19.035 32.3794 19.035C31.3685 19.035 30.6063 18.7278 30.0917 18.1169C29.5782 17.5049 29.3215 16.6361 29.3215 15.5118V7.30318H26.9112V5.55533H29.3215V2.3496L31.5851 2.34845Z" fill="white"/>
        <path d="M39.7685 2.34845V5.55418H42.2395V7.30203H39.7685V15.5209C39.7685 16.0516 39.8785 16.4505 40.0986 16.7152C40.3186 16.98 40.6934 17.1141 41.2241 17.1141C41.4854 17.1141 41.8441 17.0648 42.3003 16.9674V18.7909C41.7043 18.9536 41.1266 19.035 40.5627 19.035C39.5518 19.035 38.7897 18.7278 38.2751 18.1169C37.7616 17.5049 37.5049 16.6361 37.5049 15.5118V7.30318H35.0945V5.55533H37.5049V2.3496L39.7685 2.34845Z" fill="white"/>
        <path d="M44.894 2.04239C44.894 1.67563 45.0063 1.36503 45.2298 1.11173C45.4533 0.858435 45.7868 0.732361 46.2269 0.732361C46.6671 0.732361 47.0017 0.858435 47.2298 1.11173C47.4579 1.36503 47.5725 1.67448 47.5725 2.04239C47.5725 2.4103 47.4579 2.71517 47.2298 2.96044C47.0017 3.20457 46.6671 3.32606 46.2269 3.32606C45.7868 3.32606 45.4544 3.20457 45.2298 2.96044C45.0052 2.71517 44.894 2.4103 44.894 2.04239ZM47.341 18.7885H45.0774V5.55414H47.341V18.7885Z" fill="white"/>
        <path d="M53.1026 5.55417L53.1759 7.21721C54.1868 5.945 55.5083 5.3089 57.1392 5.3089C59.9358 5.3089 61.3467 6.88712 61.3719 10.0436V18.7897H59.1083V10.031C59.1003 9.07623 58.8825 8.37136 58.4539 7.91406C58.0252 7.4579 57.3582 7.22867 56.4539 7.22867C55.7192 7.22867 55.0751 7.42466 54.5203 7.81549C53.9656 8.20747 53.5335 8.72093 53.2241 9.35818V18.7897H50.9604V5.55417H53.1026Z" fill="white"/>
        <path d="M64.2464 12.0607C64.2464 9.99771 64.7244 8.35645 65.6779 7.13697C66.6315 5.91748 67.8957 5.30774 69.4705 5.30774C71.0854 5.30774 72.345 5.87851 73.2504 7.02006L73.3605 5.55301H75.4281V18.4711C75.4281 20.1834 74.9204 21.5335 73.9049 22.5192C72.8894 23.506 71.5255 24 69.8132 24C68.8585 24 67.9255 23.796 67.012 23.388C66.0986 22.9811 65.4017 22.4218 64.9204 21.7123L66.094 20.3542C67.0648 21.553 68.251 22.1524 69.6539 22.1524C70.7542 22.1524 71.6126 21.8418 72.2292 21.2218C72.8459 20.6017 73.153 19.7295 73.153 18.604V17.4671C72.2476 18.51 71.012 19.0327 69.4464 19.0327C67.8969 19.0327 66.643 18.408 65.6848 17.1599C64.7267 15.9129 64.2476 14.212 64.2476 12.0596L64.2464 12.0607ZM66.5215 12.3175C66.5215 13.8109 66.8275 14.9822 67.4384 15.835C68.0504 16.6865 68.9066 17.1129 70.008 17.1129C71.435 17.1129 72.4825 16.4642 73.1519 15.1679V9.1255C72.4596 7.86132 71.4189 7.2298 70.0321 7.2298C68.9318 7.2298 68.0711 7.65731 67.451 8.51347C66.831 9.36963 66.5215 10.6384 66.5215 12.3175Z" fill="white"/>
        <path d="M92.5903 13.6516L94.988 0.977661H98.6453L94.6946 18.7885H91.0006L88.1009 6.87336L85.2023 18.7885H81.5072L77.5565 0.977661H81.2138L83.6241 13.6264L86.5605 0.977661H89.6676L92.5903 13.6516Z" fill="#00BCA5"/>
        <path d="M99.4648 12.0493C99.4648 10.7358 99.7169 9.56565 100.223 8.53871C100.729 7.51178 101.457 6.71636 102.407 6.15361C103.357 5.59086 104.46 5.31006 105.716 5.31006C107.503 5.31006 108.959 5.85676 110.089 6.94903C111.218 8.04244 111.849 9.52668 111.979 11.4029L112.003 12.3083C112.003 14.3381 111.436 15.9668 110.303 17.1954C109.169 18.4218 107.648 19.0361 105.74 19.0361C103.832 19.0361 102.308 18.4241 101.171 17.2C100.034 15.976 99.4648 14.3129 99.4648 12.2098V12.0505V12.0493ZM102.999 12.3003C102.999 13.5588 103.236 14.5204 103.709 15.1863C104.182 15.8522 104.858 16.1846 105.739 16.1846C106.595 16.1846 107.264 15.8556 107.744 15.1989C108.226 14.541 108.466 13.49 108.466 12.0436C108.466 10.8115 108.226 9.85562 107.744 9.17711C107.263 8.4986 106.586 8.15934 105.713 8.15934C104.849 8.15934 104.181 8.49745 103.708 9.17138C103.234 9.8453 102.999 10.8883 102.999 12.3003Z" fill="#00BCA5"/>
        <path d="M121.618 8.86764C121.137 8.80231 120.713 8.77022 120.346 8.77022C119.009 8.77022 118.132 9.22294 117.716 10.1284V18.7897H114.181V5.55417H117.521L117.618 7.13125C118.328 5.91635 119.31 5.3089 120.566 5.3089C120.958 5.3089 121.325 5.36162 121.668 5.46821L121.618 8.86764Z" fill="#00BCA5"/>
        <path d="M127.05 18.7897H123.503V0H127.05V18.7897Z" fill="#00BCA5"/>
        <path d="M129.411 12.0734C129.411 10.0103 129.874 8.36676 130.799 7.14269C131.724 5.91977 132.99 5.30774 134.597 5.30774C135.885 5.30774 136.95 5.78911 137.79 6.75186V0H141.338V18.7897H138.144L137.974 17.3822C137.092 18.4837 135.959 19.0338 134.573 19.0338C133.015 19.0338 131.765 18.4195 130.824 17.1931C129.882 15.9656 129.411 14.259 129.411 12.0734ZM132.946 12.3358C132.946 13.5771 133.161 14.5284 133.593 15.1897C134.025 15.8521 134.653 16.1822 135.477 16.1822C136.571 16.1822 137.341 15.7215 137.79 14.7977V9.56676C137.35 8.64413 136.587 8.18224 135.503 8.18224C133.798 8.18224 132.946 9.56676 132.946 12.3358Z" fill="#00BCA5"/>
    </g>
    <rect x="145.338" width="35" height="22" rx="11" fill="#194659"/>
    <path d="M150.275 14.4258C150.275 14.2422 150.332 14.0879 150.445 13.9629C150.562 13.834 150.73 13.7695 150.949 13.7695C151.168 13.7695 151.334 13.834 151.447 13.9629C151.564 14.0879 151.623 14.2422 151.623 14.4258C151.623 14.6055 151.564 14.7578 151.447 14.8828C151.334 15.0078 151.168 15.0703 150.949 15.0703C150.73 15.0703 150.562 15.0078 150.445 14.8828C150.332 14.7578 150.275 14.6055 150.275 14.4258ZM155.959 14.2266C156.216 14.2266 156.455 14.1738 156.673 14.0684C156.892 13.9629 157.072 13.8184 157.213 13.6348C157.353 13.4473 157.433 13.2344 157.453 12.9961H158.484C158.464 13.3711 158.338 13.7207 158.103 14.0449C157.873 14.3652 157.57 14.625 157.195 14.8242C156.82 15.0195 156.408 15.1172 155.959 15.1172C155.482 15.1172 155.066 15.0332 154.711 14.8652C154.359 14.6973 154.066 14.4668 153.832 14.1738C153.601 13.8809 153.427 13.5449 153.31 13.166C153.197 12.7832 153.14 12.3789 153.14 11.9531V11.707C153.14 11.2812 153.197 10.8789 153.31 10.5C153.427 10.1172 153.601 9.7793 153.832 9.48633C154.066 9.19336 154.359 8.96289 154.711 8.79492C155.066 8.62695 155.482 8.54297 155.959 8.54297C156.455 8.54297 156.888 8.64453 157.259 8.84766C157.631 9.04688 157.922 9.32031 158.132 9.66797C158.347 10.0117 158.464 10.4023 158.484 10.8398H157.453C157.433 10.5781 157.359 10.3418 157.23 10.1309C157.105 9.91992 156.933 9.75195 156.714 9.62695C156.5 9.49805 156.248 9.43359 155.959 9.43359C155.627 9.43359 155.347 9.5 155.121 9.63281C154.898 9.76172 154.72 9.9375 154.588 10.1602C154.459 10.3789 154.365 10.623 154.306 10.8926C154.252 11.1582 154.224 11.4297 154.224 11.707V11.9531C154.224 12.2305 154.252 12.5039 154.306 12.7734C154.361 13.043 154.453 13.2871 154.582 13.5059C154.714 13.7246 154.892 13.9004 155.115 14.0332C155.341 14.1621 155.623 14.2266 155.959 14.2266ZM159.416 11.9004V11.7656C159.416 11.3086 159.482 10.8848 159.615 10.4941C159.748 10.0996 159.939 9.75781 160.189 9.46875C160.439 9.17578 160.742 8.94922 161.097 8.78906C161.453 8.625 161.851 8.54297 162.293 8.54297C162.738 8.54297 163.138 8.625 163.494 8.78906C163.853 8.94922 164.158 9.17578 164.408 9.46875C164.662 9.75781 164.855 10.0996 164.988 10.4941C165.121 10.8848 165.187 11.3086 165.187 11.7656V11.9004C165.187 12.3574 165.121 12.7812 164.988 13.1719C164.855 13.5625 164.662 13.9043 164.408 14.1973C164.158 14.4863 163.855 14.7129 163.5 14.877C163.148 15.0371 162.75 15.1172 162.304 15.1172C161.859 15.1172 161.459 15.0371 161.103 14.877C160.748 14.7129 160.443 14.4863 160.189 14.1973C159.939 13.9043 159.748 13.5625 159.615 13.1719C159.482 12.7812 159.416 12.3574 159.416 11.9004ZM160.5 11.7656V11.9004C160.5 12.2168 160.537 12.5156 160.611 12.7969C160.685 13.0742 160.797 13.3203 160.945 13.5352C161.097 13.75 161.287 13.9199 161.513 14.0449C161.74 14.166 162.004 14.2266 162.304 14.2266C162.601 14.2266 162.861 14.166 163.084 14.0449C163.31 13.9199 163.498 13.75 163.646 13.5352C163.795 13.3203 163.906 13.0742 163.98 12.7969C164.058 12.5156 164.097 12.2168 164.097 11.9004V11.7656C164.097 11.4531 164.058 11.1582 163.98 10.8809C163.906 10.5996 163.793 10.3516 163.64 10.1367C163.492 9.91797 163.304 9.74609 163.078 9.62109C162.855 9.49609 162.593 9.43359 162.293 9.43359C161.996 9.43359 161.734 9.49609 161.507 9.62109C161.285 9.74609 161.097 9.91797 160.945 10.1367C160.797 10.3516 160.685 10.5996 160.611 10.8809C160.537 11.1582 160.5 11.4531 160.5 11.7656ZM167.625 9.91992V15H166.535V8.66016H167.566L167.625 9.91992ZM167.402 11.5898L166.898 11.5723C166.902 11.1387 166.959 10.7383 167.068 10.3711C167.177 10 167.339 9.67773 167.554 9.4043C167.769 9.13086 168.037 8.91992 168.357 8.77148C168.677 8.61914 169.048 8.54297 169.47 8.54297C169.767 8.54297 170.041 8.58594 170.291 8.67188C170.541 8.75391 170.757 8.88477 170.941 9.06445C171.125 9.24414 171.267 9.47461 171.369 9.75586C171.47 10.0371 171.521 10.377 171.521 10.7754V15H170.437V10.8281C170.437 10.4961 170.381 10.2305 170.267 10.0312C170.158 9.83203 170.002 9.6875 169.798 9.59766C169.595 9.50391 169.357 9.45703 169.084 9.45703C168.763 9.45703 168.496 9.51367 168.281 9.62695C168.066 9.74023 167.894 9.89648 167.765 10.0957C167.636 10.2949 167.543 10.5234 167.484 10.7812C167.429 11.0352 167.402 11.3047 167.402 11.5898ZM171.509 10.9922L170.783 11.2148C170.787 10.8672 170.843 10.5332 170.953 10.2129C171.066 9.89258 171.228 9.60742 171.439 9.35742C171.654 9.10742 171.918 8.91016 172.23 8.76562C172.543 8.61719 172.9 8.54297 173.302 8.54297C173.642 8.54297 173.943 8.58789 174.205 8.67773C174.47 8.76758 174.693 8.90625 174.873 9.09375C175.056 9.27734 175.195 9.51367 175.289 9.80273C175.382 10.0918 175.429 10.4355 175.429 10.834V15H174.339V10.8223C174.339 10.4668 174.283 10.1914 174.17 9.99609C174.06 9.79688 173.904 9.6582 173.701 9.58008C173.502 9.49805 173.263 9.45703 172.986 9.45703C172.748 9.45703 172.537 9.49805 172.353 9.58008C172.17 9.66211 172.015 9.77539 171.89 9.91992C171.765 10.0605 171.67 10.2227 171.603 10.4062C171.541 10.5898 171.509 10.7852 171.509 10.9922Z" fill="#00BCA5"/>
    <defs>
        <clipPath id="clip0_1_5126">
            <rect width="141.338" height="24" fill="white"/>
        </clipPath>
    </defs>
</svg>
