<svg width="4" height="8" viewBox="0 0 4 8" fill="none" xmlns="http://www.w3.org/2000/svg">
    <path d="M3.8326 3.61396L0.889564 0.654917C0.841226 0.605829 0.783716 0.566867 0.720353 0.540278C0.65699 0.513689 0.589026 0.5 0.520384 0.5C0.451741 0.5 0.383778 0.513689 0.320415 0.540278C0.257051 0.566867 0.199542 0.605829 0.151204 0.654917C0.0543586 0.753043 0 0.885782 0 1.02414C0 1.1625 0.0543586 1.29524 0.151204 1.39337L2.72506 4.01199L0.151204 6.60443C0.0543586 6.70256 0 6.8353 0 6.97366C0 7.11202 0.0543586 7.24476 0.151204 7.34288C0.199361 7.39237 0.256789 7.43174 0.320161 7.45871C0.383533 7.48568 0.451588 7.49971 0.520384 7.5C0.58918 7.49971 0.657235 7.48568 0.720607 7.45871C0.783979 7.43174 0.841407 7.39237 0.889564 7.34288L3.8326 4.38384C3.88538 4.3348 3.92751 4.27527 3.95632 4.20902C3.98513 4.14277 4 4.07123 4 3.9989C4 3.92657 3.98513 3.85503 3.95632 3.78878C3.92751 3.72253 3.88538 3.66301 3.8326 3.61396Z" fill="white"/>
</svg>
