<svg width="16" height="16" viewBox="0 0 16 16" fill="none" xmlns="http://www.w3.org/2000/svg">
    <path d="M15.6269 14.2354L12.8461 11.475C13.9255 10.1281 14.4482 8.41846 14.3068 6.69767C14.1654 4.97689 13.3705 3.37574 12.0857 2.22344C10.8008 1.07115 9.12363 0.455301 7.39899 0.502529C5.67435 0.549757 4.03334 1.25647 2.81338 2.47736C1.59342 3.69824 0.887243 5.3405 0.840051 7.06645C0.792859 8.7924 1.40824 10.4708 2.55966 11.7567C3.71108 13.0425 5.31102 13.838 7.03049 13.9795C8.74997 14.1211 10.4583 13.5979 11.8042 12.5177L14.5625 15.2781C14.6322 15.3484 14.7151 15.4042 14.8065 15.4423C14.8978 15.4804 14.9958 15.5 15.0947 15.5C15.1937 15.5 15.2916 15.4804 15.383 15.4423C15.4743 15.4042 15.5572 15.3484 15.6269 15.2781C15.762 15.1382 15.8375 14.9513 15.8375 14.7568C15.8375 14.5622 15.762 14.3753 15.6269 14.2354ZM7.59918 12.5177C6.56145 12.5177 5.54701 12.2097 4.68417 11.6327C3.82132 11.0558 3.14882 10.2357 2.75169 9.27621C2.35457 8.31674 2.25066 7.26097 2.45312 6.2424C2.65557 5.22383 3.15529 4.28822 3.88908 3.55387C4.62286 2.81952 5.55777 2.31943 6.57556 2.11682C7.59336 1.91421 8.64833 2.0182 9.60707 2.41562C10.5658 2.81305 11.3853 3.48607 11.9618 4.34957C12.5383 5.21307 12.8461 6.22827 12.8461 7.26679C12.8461 8.65941 12.2933 9.99499 11.3093 10.9797C10.3253 11.9644 8.99074 12.5177 7.59918 12.5177Z" fill="#00BCA5"/>
</svg>
