<svg width="18" height="20" viewBox="0 0 18 20" fill="none" xmlns="http://www.w3.org/2000/svg">
    <path fill-rule="evenodd" clip-rule="evenodd" d="M8.26647 0.212052C8.04262 0.350618 6.07272 1.59214 4.12074 3.55905C2.17701 5.51766 0.0758591 8.37055 0.000257492 11.6978L0 11.7205V11.8743C0 14.7096 2.32726 16.9862 5.16566 16.9995C5.17384 16.9997 5.18205 16.9998 5.19027 16.9998C5.38705 16.9998 5.58253 16.989 5.77618 16.9676L5.39197 18.2282C5.26238 18.653 5.34899 19.113 5.61791 19.4612C5.87579 19.7952 6.27599 20 6.71405 20H11.2855C11.7247 20 12.124 19.7943 12.3812 19.4621L12.3818 19.4612C12.6508 19.113 12.7373 18.6533 12.6079 18.2286L12.2236 16.9678C12.4172 16.9892 12.6126 17 12.8093 17C15.6594 17 18 14.718 18 11.8747V11.7209L17.9997 11.6982C17.9243 8.37097 15.8231 5.51801 13.8794 3.55934C11.9267 1.59163 9.95599 0.349839 9.73349 0.212055C9.28655 -0.0706236 8.71356 -0.0707452 8.26647 0.212052ZM11.562 14.7538C11.3783 14.6773 11.1996 14.6171 11.0448 14.5669C10.6903 14.452 10.3014 14.5437 10.0356 14.8048C9.7698 15.066 9.67124 15.4532 9.77987 15.8097L10.4474 18H7.55235L8.21988 15.8097C8.32848 15.4534 8.23002 15.0662 7.96439 14.8051C7.69876 14.5439 7.31 14.452 6.95558 14.5667C6.80005 14.617 6.62154 14.6772 6.43816 14.7536C6.04737 14.9144 5.6356 14.9973 5.21003 14.9998C5.20359 14.9997 5.19714 14.9996 5.19068 14.9996C3.41568 14.9996 2 13.5837 2 11.8743V11.7323C2.06212 9.19849 3.69998 6.8223 5.54033 4.96787C6.94868 3.54875 8.37351 2.53749 8.99994 2.11939C9.62655 2.53764 11.0514 3.54898 12.4598 4.96813C14.3001 6.82265 15.938 9.1989 16 11.7327V11.8747C16 13.584 14.5845 15 12.8093 15C12.3766 15 11.9582 14.917 11.562 14.7538ZM8.65939 1.89913C8.66306 1.9015 8.66674 1.90383 8.67044 1.90611L8.65939 1.89913ZM9.32939 1.90619C9.33317 1.90385 9.33694 1.90147 9.34069 1.89905L9.32939 1.90619ZM7.30493 18.8119C7.30495 18.8118 7.3049 18.8119 7.30493 18.8119V18.8119Z" fill="#00BCA5"/>
</svg>
