<svg width="20" height="20" viewBox="0 0 20 20" fill="none" xmlns="http://www.w3.org/2000/svg">
    <path d="M19.9665 7.68716C19.9034 7.50543 19.7887 7.34582 19.6362 7.22766C19.4838 7.10951 19.3002 7.0379 19.1076 7.02151L13.4254 6.1969L10.8788 1.06045C10.797 0.892475 10.6694 0.750814 10.5104 0.651693C10.3515 0.552572 10.1676 0.5 9.98005 0.5C9.79244 0.5 9.60864 0.552572 9.44968 0.651693C9.29072 0.750814 9.16304 0.892475 9.08127 1.06045L6.53474 6.18696L0.852469 7.02151C0.667643 7.04764 0.493882 7.1248 0.350902 7.24421C0.207923 7.36363 0.101452 7.52052 0.0435705 7.6971C-0.00941244 7.86964 -0.014167 8.05329 0.0298169 8.22832C0.0738009 8.40335 0.164863 8.56316 0.293231 8.69061L4.41762 12.6646L3.41898 18.3078C3.38333 18.494 3.40199 18.6866 3.47277 18.8626C3.54356 19.0387 3.6635 19.1909 3.81843 19.3013C3.96944 19.4087 4.14756 19.4721 4.33278 19.4844C4.518 19.4967 4.703 19.4573 4.86701 19.3708L9.98005 16.7182L15.0731 19.3808C15.2133 19.4594 15.3716 19.5005 15.5325 19.5C15.744 19.5007 15.9503 19.4346 16.1217 19.3112C16.2766 19.2008 16.3966 19.0486 16.4673 18.8725C16.5381 18.6965 16.5568 18.504 16.5211 18.3177L15.5225 12.6746L19.6469 8.70054C19.7911 8.57901 19.8976 8.41928 19.9542 8.2399C20.0108 8.06052 20.015 7.86885 19.9665 7.68716ZM13.8248 11.6612C13.7077 11.7739 13.6201 11.9134 13.5696 12.0675C13.5191 12.2216 13.5073 12.3857 13.5352 12.5454L14.2542 16.7082L10.4993 14.7212C10.3549 14.6447 10.1937 14.6046 10.03 14.6046C9.86629 14.6046 9.7051 14.6447 9.56062 14.7212L5.80573 16.7082L6.52475 12.5454C6.55265 12.3857 6.54084 12.2216 6.49036 12.0675C6.43988 11.9134 6.35226 11.7739 6.23514 11.6612L3.23922 8.68067L7.4435 8.07463C7.60528 8.05224 7.75907 7.99072 7.89139 7.89545C8.02371 7.80019 8.13052 7.67408 8.20247 7.5282L9.98005 3.74293L11.8575 7.53813C11.9294 7.68402 12.0362 7.81012 12.1686 7.90539C12.3009 8.00065 12.4547 8.06218 12.6165 8.08456L16.8207 8.69061L13.8248 11.6612Z" fill="#00BCA5"/>
</svg>
