<svg width="18" height="18" viewBox="0 0 18 18" fill="none" xmlns="http://www.w3.org/2000/svg">
    <path d="M15 4.50349H14.65C14.8782 4.08308 14.9979 3.6217 15 3.15383C15.003 2.52699 14.7975 1.91367 14.4098 1.39284C14.0221 0.871997 13.4701 0.467473 12.8247 0.231333C12.1794 -0.00480683 11.4703 -0.0617541 10.7886 0.0678216C10.107 0.197397 9.48405 0.507565 9 0.9584C8.51595 0.507565 7.89302 0.197397 7.21138 0.0678216C6.52975 -0.0617541 5.82061 -0.00480683 5.17525 0.231333C4.5299 0.467473 3.97786 0.871997 3.59019 1.39284C3.20252 1.91367 2.99697 2.52699 3 3.15383C3.00213 3.6217 3.12178 4.08308 3.35 4.50349H3C2.20435 4.50349 1.44129 4.78788 0.87868 5.29409C0.316071 5.80031 0 6.48689 0 7.20279V9.00232C0 9.24096 0.105357 9.46982 0.292893 9.63855C0.48043 9.80729 0.734784 9.90209 1 9.90209H2V15.3007C2 16.0166 2.31607 16.7032 2.87868 17.2094C3.44129 17.7156 4.20435 18 5 18H13C13.7956 18 14.5587 17.7156 15.1213 17.2094C15.6839 16.7032 16 16.0166 16 15.3007V9.90209H17C17.2652 9.90209 17.5196 9.80729 17.7071 9.63855C17.8946 9.46982 18 9.24096 18 9.00232V7.20279C18 6.48689 17.6839 5.80031 17.1213 5.29409C16.5587 4.78788 15.7956 4.50349 15 4.50349ZM8 16.2005H5C4.73478 16.2005 4.48043 16.1057 4.29289 15.9369C4.10536 15.7682 4 15.5393 4 15.3007V9.90209H8V16.2005ZM8 8.10256H2V7.20279C2 6.96415 2.10536 6.7353 2.29289 6.56656C2.48043 6.39782 2.73478 6.30302 3 6.30302H8V8.10256ZM8 4.50349H6.5C6.20333 4.50349 5.91332 4.42433 5.66665 4.27603C5.41997 4.12773 5.22771 3.91694 5.11418 3.67032C5.00065 3.42371 4.97094 3.15234 5.02882 2.89053C5.0867 2.62872 5.22956 2.38824 5.43934 2.19949C5.64912 2.01073 5.91639 1.88219 6.20736 1.83012C6.49834 1.77804 6.79994 1.80477 7.07403 1.90692C7.34811 2.00907 7.58238 2.18206 7.7472 2.40401C7.91203 2.62596 8 2.8869 8 3.15383V4.50349ZM10 3.15383C10 2.8869 10.088 2.62596 10.2528 2.40401C10.4176 2.18206 10.6519 2.00907 10.926 1.90692C11.2001 1.80477 11.5017 1.77804 11.7926 1.83012C12.0836 1.88219 12.3509 2.01073 12.5607 2.19949C12.7704 2.38824 12.9133 2.62872 12.9712 2.89053C13.0291 3.15234 12.9994 3.42371 12.8858 3.67032C12.7723 3.91694 12.58 4.12773 12.3334 4.27603C12.0867 4.42433 11.7967 4.50349 11.5 4.50349H10V3.15383ZM14 15.3007C14 15.5393 13.8946 15.7682 13.7071 15.9369C13.5196 16.1057 13.2652 16.2005 13 16.2005H10V9.90209H14V15.3007ZM16 8.10256H10V6.30302H15C15.2652 6.30302 15.5196 6.39782 15.7071 6.56656C15.8946 6.7353 16 6.96415 16 7.20279V8.10256Z" fill="#00BCA5"/>
</svg>
