<svg width="22" height="11" viewBox="0 0 22 11" fill="none" xmlns="http://www.w3.org/2000/svg">
    <path d="M21.6747 0.325091C21.2471 -0.105602 20.5512 -0.108899 20.1202 0.318498C20.118 0.320696 20.1158 0.322893 20.1136 0.325091L13.1987 7.24694L8.48248 2.5225C8.05483 2.09181 7.35894 2.08851 6.928 2.51591C6.9258 2.51811 6.9236 2.52031 6.9214 2.5225L0.325282 9.11474C-0.105665 9.54214 -0.108963 10.2376 0.318686 10.6683C0.320884 10.6705 0.323083 10.6727 0.325282 10.6749C0.75293 11.1056 1.44882 11.1089 1.87977 10.6815C1.88197 10.6793 1.88416 10.6771 1.88636 10.6749L7.70194 4.85176L12.4182 9.5762C12.8458 10.0069 13.5417 10.0102 13.9727 9.58279C13.9748 9.5806 13.977 9.5784 13.9792 9.5762L21.6747 1.88525C22.1057 1.45786 22.109 0.762376 21.6813 0.331683C21.6791 0.329485 21.6769 0.327288 21.6747 0.325091Z" fill="#00BCA5"/>
</svg>
