<svg width="20" height="20" viewBox="0 0 20 20" fill="none" xmlns="http://www.w3.org/2000/svg">
    <path d="M18.07 4.09787C16.9817 2.59525 15.4912 1.43055 13.77 0.737873C12.2526 0.120237 10.6067 -0.11513 8.977 0.0524661C7.3473 0.220062 5.78375 0.785488 4.42381 1.69903C3.06387 2.61257 1.94921 3.84623 1.17783 5.29156C0.406452 6.73688 0.00198717 8.34959 0 9.98787C0 10.1779 0 10.3679 0 10.5479C0.0872638 12.112 0.542985 13.6334 1.33 14.9879C2.61526 17.2437 4.72747 18.9112 7.22 19.6379C8.12593 19.883 9.06158 20.0008 10 19.9879C10.6311 19.9908 11.2609 19.9305 11.88 19.8079C13.9226 19.4125 15.7911 18.3898 17.2251 16.8824C18.659 15.3749 19.5871 13.4577 19.88 11.3979C19.9551 10.9315 19.9953 10.4602 20 9.98787C20.0087 7.86778 19.3317 5.80171 18.07 4.09787ZM16.07 4.86787L15 7.72787L13.38 8.16787L11 6.47787V4.62787L13.49 2.81787C14.5004 3.30512 15.394 4.00431 16.11 4.86787H16.07ZM12 9.65787L11.22 11.9879H8.77L8 9.65787L10 8.22787L12 9.65787ZM10 1.98787C10.3716 1.99205 10.7425 2.02213 11.11 2.07787L10 2.87787L8.89 2.07787C9.25746 2.02213 9.62836 1.99205 10 1.98787ZM2.88 6.35787L3.28 7.67787L2.15 8.46787C2.29195 7.73346 2.53775 7.02299 2.88 6.35787ZM4.25 15.5279L5.63 15.5779L6 16.9079C5.35742 16.5284 4.76881 16.0643 4.25 15.5279ZM6 13.5879L2.85 13.4779C2.45256 12.6973 2.1889 11.8557 2.07 10.9879L4.56 9.24787L6 9.86787L6.89 12.6279L6 13.5879ZM6.86 8.05787L5.3 7.35787L4.39 4.35787C5.00337 3.73143 5.71637 3.21104 6.5 2.81787L9 4.62787V6.47787L6.86 8.05787ZM11 17.9179C10.1227 18.0219 9.23421 17.9814 8.37 17.7979L7.54 14.8779L8.37 13.9879H11.44L12.11 14.9879L11 17.9179ZM13.41 17.2179L13.87 15.9879L15.23 16.0579C14.6705 16.5291 14.0478 16.9195 13.38 17.2179H13.41ZM16.87 14.0979L13.76 13.9879L13.05 12.8879L13.94 10.1279L15.45 9.71787L17.81 11.7179C17.6198 12.5592 17.2921 13.3633 16.84 14.0979H16.87ZM16.92 8.26787L17.4 6.98787C17.6816 7.66758 17.8602 8.38547 17.93 9.11787L16.92 8.26787Z" fill="#00BCA5"/>
</svg>
