<svg width="21" height="24" viewBox="0 0 21 24" fill="none" xmlns="http://www.w3.org/2000/svg">
    <path d="M1.23529 12C0.907674 12 0.593472 12.1264 0.361809 12.3515C0.130147 12.5765 0 12.8817 0 13.2V22.8C0 23.1183 0.130147 23.4235 0.361809 23.6485C0.593472 23.8736 0.907674 24 1.23529 24C1.56291 24 1.87712 23.8736 2.10878 23.6485C2.34044 23.4235 2.47059 23.1183 2.47059 22.8V13.2C2.47059 12.8817 2.34044 12.5765 2.10878 12.3515C1.87712 12.1264 1.56291 12 1.23529 12ZM7.41176 0C7.08414 0 6.76994 0.126428 6.53828 0.351472C6.30662 0.576515 6.17647 0.88174 6.17647 1.2V22.8C6.17647 23.1183 6.30662 23.4235 6.53828 23.6485C6.76994 23.8736 7.08414 24 7.41176 24C7.73939 24 8.05359 23.8736 8.28525 23.6485C8.51691 23.4235 8.64706 23.1183 8.64706 22.8V1.2C8.64706 0.88174 8.51691 0.576515 8.28525 0.351472C8.05359 0.126428 7.73939 0 7.41176 0ZM19.7647 16.8C19.4371 16.8 19.1229 16.9264 18.8912 17.1515C18.6596 17.3765 18.5294 17.6817 18.5294 18V22.8C18.5294 23.1183 18.6596 23.4235 18.8912 23.6485C19.1229 23.8736 19.4371 24 19.7647 24C20.0923 24 20.4065 23.8736 20.6382 23.6485C20.8699 23.4235 21 23.1183 21 22.8V18C21 17.6817 20.8699 17.3765 20.6382 17.1515C20.4065 16.9264 20.0923 16.8 19.7647 16.8ZM13.5882 7.2C13.2606 7.2 12.9464 7.32643 12.7148 7.55147C12.4831 7.77652 12.3529 8.08174 12.3529 8.4V22.8C12.3529 23.1183 12.4831 23.4235 12.7148 23.6485C12.9464 23.8736 13.2606 24 13.5882 24C13.9159 24 14.2301 23.8736 14.4617 23.6485C14.6934 23.4235 14.8235 23.1183 14.8235 22.8V8.4C14.8235 8.08174 14.6934 7.77652 14.4617 7.55147C14.2301 7.32643 13.9159 7.2 13.5882 7.2Z" fill="#00BCA5"/>
</svg>
