<svg width="24" height="24" viewBox="0 0 24 24" fill="none" xmlns="http://www.w3.org/2000/svg">
    <g clip-path="url(#clip0_1_4182)">
        <path fill-rule="evenodd" clip-rule="evenodd" d="M8.33621 10.9655C8.90754 11.5654 8.88438 12.5149 8.28448 13.0862L5.75 15.5H22.5C23.3284 15.5 24 16.1716 24 17C24 17.8284 23.3284 18.5 22.5 18.5H5.75L8.28448 20.9138C8.88438 21.4851 8.90754 22.4346 8.33621 23.0345C7.76488 23.6344 6.81541 23.6575 6.21552 23.0862L0.965517 18.0862C0.668247 17.8031 0.5 17.4105 0.5 17C0.5 16.5895 0.668247 16.1969 0.965517 15.9138L6.21552 10.9138C6.81541 10.3425 7.76488 10.3656 8.33621 10.9655Z" fill="#00BCA5"/>
        <path fill-rule="evenodd" clip-rule="evenodd" d="M16.1638 0.96552C15.5925 1.56542 15.6156 2.51488 16.2155 3.08621L18.75 5.5H2C1.17157 5.5 0.5 6.17158 0.5 7C0.5 7.82843 1.17157 8.5 2 8.5H18.75L16.2155 10.9138C15.6156 11.4851 15.5925 12.4346 16.1638 13.0345C16.7351 13.6344 17.6846 13.6575 18.2845 13.0862L23.5345 8.08621C23.8318 7.8031 24 7.41052 24 7C24 6.58949 23.8318 6.19691 23.5345 5.9138L18.2845 0.913796C17.6846 0.342467 16.7351 0.365624 16.1638 0.96552Z" fill="#00BCA5"/>
    </g>
    <defs>
        <clipPath id="clip0_1_4182">
            <rect width="24" height="24" fill="white"/>
        </clipPath>
    </defs>
</svg>
